<svg width="24" height="19" viewBox="0 0 24 19" fill="none" xmlns="http://www.w3.org/2000/svg">
<path d="M23.3777 5.41556V4.50056C23.3839 3.35187 22.9369 2.37351 22.0312 1.56343C21.1337 0.754038 20.0424 0.347982 18.7538 0.347982H13.8522L9.97144 3.91259H5.06622C3.79142 3.91259 2.70079 4.31729 1.7964 5.1267C0.893449 5.93679 0.440918 6.91515 0.440918 8.0652V13.9824C0.440918 15.1297 0.88999 16.1108 1.78608 16.9209C2.69044 17.7289 3.7838 18.135 5.06622 18.135H9.97065L9.9706 18.1351L9.97071 18.135H9.97133L9.97147 18.1348L13.8517 14.5717H18.7557C20.0424 14.5717 21.1337 14.167 22.0312 13.3563C22.9369 12.5462 23.3839 11.5665 23.3777 10.4191V9.52523H19.4464V9.74326C19.4464 10.1929 19.2677 10.584 18.9097 10.9165C18.5592 11.2217 18.1212 11.3825 17.5976 11.4043H13.8523L9.97144 14.9689H6.22238C5.71739 14.9614 5.28351 14.8006 4.91859 14.4906C4.55572 14.1588 4.37223 13.763 4.37223 13.3065V8.73968C4.37223 8.26073 4.54953 7.87034 4.90756 7.56648C5.27938 7.23468 5.71739 7.07184 6.22238 7.07865H9.97158L9.97155 7.07882L9.97172 7.07865H9.97183L13.852 3.5154H17.8412C18.1212 3.49426 18.5592 3.65234 18.9097 3.99298C19.2677 4.30434 19.4464 4.69745 19.4464 5.17507V5.41556H23.3777Z" fill="#AFFF01"/>
<path d="M13.8521 3.51539H13.8522L9.97205 7.07867L9.97168 3.91259L13.8524 0.347977L13.8557 2.47981L13.8521 3.51539Z" fill="#7DA500"/>
<path d="M13.8518 14.5716H13.8516L9.97119 18.1349L9.97122 14.9689L13.852 11.4043L13.8518 14.5716Z" fill="#7DA500"/>
</svg>
